<svg xmlns="http://www.w3.org/2000/svg" viewBox="0 0 248.42 78.69">
  <defs>
    <style>
      .blue{fill:#0e1f43;}
      .blue,.orange{fill-rule:evenodd;}
      .orange{fill:#d96000;}
    </style>
  </defs>
  <g id="Layer_2" data-name="Layer 2">
    <g id="Layer_1-2" data-name="Layer 1">
      <path class="blue" d="M102.43,31.71a2.73,2.73,0,0,1,1-1.55,2.41,2.41,0,0,1,1.37-.45,2.87,2.87,0,0,1,1,.18,3.29,3.29,0,0,1,.84.41,2.21,2.21,0,0,1,.55.47c.12.15.17.28.13.38L100.78,47.4a3,3,0,0,1-1,1.25,2.88,2.88,0,0,1-1.63.4,2.92,2.92,0,0,1-1.59-.37,2.74,2.74,0,0,1-.94-1.28L89,31.15c0-.1,0-.23.15-.38a2.23,2.23,0,0,1,.58-.47,4.07,4.07,0,0,1,.89-.41,3,3,0,0,1,1-.18,2.31,2.31,0,0,1,1.47.51,3,3,0,0,1,.94,1.49L98.28,44l4.15-12.3Zm18.2,17.54a10.64,10.64,0,0,1-4-.72,9,9,0,0,1-3.1-2,9.28,9.28,0,0,1-2-3.13,10.87,10.87,0,0,1-.72-4,10.62,10.62,0,0,1,.74-4,9.15,9.15,0,0,1,5.15-5.18,10.28,10.28,0,0,1,3.94-.74,10.4,10.4,0,0,1,4,.74,9,9,0,0,1,3.09,2,9.29,9.29,0,0,1,2,3.11,10.73,10.73,0,0,1,.72,4,10.87,10.87,0,0,1-.72,4,9.15,9.15,0,0,1-2,3.13,9.46,9.46,0,0,1-3.11,2.05,10.36,10.36,0,0,1-4,.73Zm0-3.85A5.77,5.77,0,0,0,122.9,45a5.13,5.13,0,0,0,1.73-1.22,5.4,5.4,0,0,0,1.13-1.92,7.73,7.73,0,0,0,0-4.94A6,6,0,0,0,124.62,35a5,5,0,0,0-1.74-1.25,5.68,5.68,0,0,0-2.25-.44,5.59,5.59,0,0,0-2.24.43,4.87,4.87,0,0,0-1.72,1.22,5.74,5.74,0,0,0-1.12,1.91,7.58,7.58,0,0,0-.39,2.5,7.5,7.5,0,0,0,.39,2.48,5.61,5.61,0,0,0,1.14,1.91A5.16,5.16,0,0,0,118.42,45a5.43,5.43,0,0,0,2.24.45ZM138,49c-1.24,0-1.85-.66-1.85-2V31.68c0-1.31.61-2,1.85-2h.59a1.72,1.72,0,0,1,1.91,2V47a1.72,1.72,0,0,1-1.91,2Zm9.61-15.37c-1.33,0-2-.63-2-1.88v-.12c0-1.2.67-1.79,2-1.79h12.92c1.33,0,2,.59,2,1.79v.12c0,1.25-.67,1.88-2,1.88h-4.27V47c0,1.32-.63,2-1.91,2h-.62c-1.19,0-1.79-.66-1.79-2V33.62ZM176,40.78s0-.1-.1-.3-.17-.46-.3-.78-.27-.7-.43-1.12-.31-.85-.47-1.28l-1.29-3.47-2.62,7ZM170,44l-1.18,3.06a3.07,3.07,0,0,1-1.06,1.56,2.28,2.28,0,0,1-1.32.45,2.77,2.77,0,0,1-.89-.15,3,3,0,0,1-.76-.37,2.23,2.23,0,0,1-.5-.44c-.12-.15-.16-.27-.12-.37l6.5-16.81a1.67,1.67,0,0,1,.77-.94,4.37,4.37,0,0,1,2.06-.35,7,7,0,0,1,1.23.09,2.66,2.66,0,0,1,.81.26,1.69,1.69,0,0,1,.49.41,1.74,1.74,0,0,1,.26.53l6.65,16.78c0,.08,0,.2-.11.35a2,2,0,0,1-.52.46,3.15,3.15,0,0,1-.78.38,2.66,2.66,0,0,1-.94.17,2.46,2.46,0,0,1-1.38-.45A3.14,3.14,0,0,1,178.07,47l-1.15-3Zm19.41,5q-1.8,0-1.8-2V31.86a2.31,2.31,0,0,1,.5-1.59,1.79,1.79,0,0,1,1.39-.56H190a2.33,2.33,0,0,1,1.28.29,4.57,4.57,0,0,1,.92.94l8.24,11.34V31.68c0-1.31.62-2,1.85-2h.42c1.21,0,1.82.66,1.82,2V46.84a2.31,2.31,0,0,1-.5,1.6,1.71,1.71,0,0,1-1.35.55h-.36a3.69,3.69,0,0,1-.73-.06,1.6,1.6,0,0,1-.52-.19,2.47,2.47,0,0,1-.41-.33,4.35,4.35,0,0,1-.42-.48l-8.57-11.78V47c0,1.32-.62,2-1.88,2Zm30.41.26a10.55,10.55,0,0,1-4-.72,9.07,9.07,0,0,1-3.11-2,9.25,9.25,0,0,1-2-3.13,10.87,10.87,0,0,1-.72-4,10.62,10.62,0,0,1,.73-4,9.23,9.23,0,0,1,5.15-5.18,10.94,10.94,0,0,1,7.91,0,9,9,0,0,1,3.09,2,9.14,9.14,0,0,1,2,3.11,10.73,10.73,0,0,1,.72,4,10.87,10.87,0,0,1-.72,4,9.15,9.15,0,0,1-2,3.13,9.42,9.42,0,0,1-3.1,2.05,10.45,10.45,0,0,1-4,.73Zm0-3.85a5.73,5.73,0,0,0,2.24-.43,5,5,0,0,0,1.73-1.22,5.41,5.41,0,0,0,1.14-1.92,7.44,7.44,0,0,0,.39-2.47,7,7,0,0,0-.41-2.47A5.85,5.85,0,0,0,223.79,35a5,5,0,0,0-1.74-1.25,5.61,5.61,0,0,0-2.25-.44,5.51,5.51,0,0,0-2.23.43,4.78,4.78,0,0,0-1.72,1.22,5.57,5.57,0,0,0-1.12,1.91,7.33,7.33,0,0,0-.4,2.5,7.25,7.25,0,0,0,.4,2.48,5.44,5.44,0,0,0,1.13,1.91A5.1,5.1,0,0,0,217.6,45a5.35,5.35,0,0,0,2.23.45Zm20.8,3.85a13.74,13.74,0,0,1-3.28-.35,8.28,8.28,0,0,1-2.3-.91,4.38,4.38,0,0,1-1.34-1.24,2.44,2.44,0,0,1-.44-1.32,1.7,1.7,0,0,1,.24-.86,3.53,3.53,0,0,1,.53-.72,2.61,2.61,0,0,1,.56-.48c.17-.12.28-.16.32-.12a7.1,7.1,0,0,0,1,1,7.5,7.5,0,0,0,1.34.82,8.71,8.71,0,0,0,1.58.58,7,7,0,0,0,1.72.22,4.55,4.55,0,0,0,2.59-.61,2,2,0,0,0,.88-1.72,1.52,1.52,0,0,0-.34-1,2.38,2.38,0,0,0-.9-.65,7.19,7.19,0,0,0-1.31-.43l-1.6-.35a22.2,22.2,0,0,1-2.25-.65,7.36,7.36,0,0,1-2-1,4.83,4.83,0,0,1-1.41-1.63,5.13,5.13,0,0,1-.53-2.43,5.46,5.46,0,0,1,.52-2.41,5.14,5.14,0,0,1,1.48-1.86,7.17,7.17,0,0,1,2.34-1.19,10.47,10.47,0,0,1,3.08-.43,13.27,13.27,0,0,1,3,.31,8.12,8.12,0,0,1,2.14.81,4.21,4.21,0,0,1,1.28,1.12,2.17,2.17,0,0,1,.42,1.24,1.75,1.75,0,0,1-.26.92,4,4,0,0,1-.58.74,2.64,2.64,0,0,1-.59.47c-.18.11-.28.15-.3.13a7,7,0,0,0-2.2-1.67,6.12,6.12,0,0,0-2.86-.68,4.09,4.09,0,0,0-2.45.62,1.92,1.92,0,0,0-.85,1.64,1.45,1.45,0,0,0,.31,1,2.06,2.06,0,0,0,.84.6,5.89,5.89,0,0,0,1.28.39c.5.09,1,.21,1.63.35a22.08,22.08,0,0,1,2.46.72,7.7,7.7,0,0,1,2,1.12,5.3,5.3,0,0,1,1.41,1.65,4.64,4.64,0,0,1,.53,2.31,5.33,5.33,0,0,1-2,4.44,9.12,9.12,0,0,1-5.79,1.59Z"/>
      <path class="orange" d="M28.89,65.18c.92-2.69,3.08-5.34,8-5.79h1.33c2.63-.2,3.5-1.58,3.34-4-.08-1.29-.4-1.94.73-2.54,1.4-.74-.42-1.25.85-3.06l.26-.34L43,47.21l-.13-.63c1.08,0,2.64.1,3.36-.34.43-.27.49-.86-.29-2.07-4.12-5.29-3.82-6.18-3.24-7.93A9.13,9.13,0,0,0,43,31.13a18.47,18.47,0,0,0-1.56-4.37l-.06.07-.07.07-1.58,1.66a1.7,1.7,0,0,1-2.35.15,1.67,1.67,0,0,1-.15-2.36l3.41-3.73,2.08-2.36,1.18-1.35a1.47,1.47,0,0,0,.1-.13l3.88-4.39,0,0h0l2.16-2.44a1.67,1.67,0,1,1,2.5,2.2l-3.84,4.36a1.66,1.66,0,0,0,2.72,1.88l1.77-2.05.4-.47.85.49L67.26,25.7c11.89,6.86,11.86,20.19,0,27l-19.09,11L26.63,76.19h0C22.89,78,20,78.77,17.67,78.69a6.09,6.09,0,0,1-5.53-3.32,15,15,0,0,1-1.29-7.55c.26-7.21,3.22-16.67,5.94-23.5l.07-.16,2.65-7.4.13-.37h5.55v1.15H20.45l-2.6,7-.08.21c-2.69,6.75-5.61,16.08-5.86,23.15a14,14,0,0,0,1.16,7,5.1,5.1,0,0,0,4.64,2.77c6.41.22,9.24-6.73,11.18-12.46Z"/>
      <path class="blue" d="M40.2,10.33l-.14.18-1,1.17h0l-1.1,1.25-.09.11L34.9,16.37,33,18.52l-.52.59-.09.09-.95,1a1.7,1.7,0,0,1-2.35.15A1.64,1.64,0,0,1,29,18l.68-.7a21.75,21.75,0,0,0-4-.68q-.62,0-1.23-.06h0a23.87,23.87,0,0,0-7.61,1.12h0c-.39.13-.77.26-1.14.41h0l-.06,0h0c-8,3.16-11.73,8.07-13.69,15.07h0A21.29,21.29,0,0,0,3.67,48.61a6.45,6.45,0,0,0,2.1,2.31A2.57,2.57,0,0,0,8,51.17c1.55-.56,3.2-2.64,4.68-6.86l.15-.42,1.12.27-.19.53c-1.61,4.58-3.51,6.88-5.38,7.55a3.61,3.61,0,0,1-3.18-.34,7.43,7.43,0,0,1-2.5-2.71A21.64,21.64,0,0,1,.12,40.7a23.79,23.79,0,0,1,5.6-17.48l0-8.72c0-11,8-19.76,23.45-10.81l5.29,3.06L32.9,8.58A1.67,1.67,0,0,0,35.13,11l2-2.31.25-.28h0L40.2,5.28a1.68,1.68,0,0,1,2.35-.15,1.66,1.66,0,0,1,.15,2.35l-2.5,2.85Z"/>
      <path class="orange" d="M33.93,21.4,36,19l2.29-2.6a1.67,1.67,0,1,1,2.5,2.2l-2.58,2.93L36.43,23.6a1.67,1.67,0,1,1-2.5-2.2Z"/>
      <path class="orange" d="M47.44,6a1.67,1.67,0,1,1,2.5,2.2l-5.42,6.16A1.67,1.67,0,1,1,42,12.13L47.44,6Z"/>
      <polygon class="blue" points="12.67 44.3 13.75 44.69 16.73 36.38 5.15 36.38 5.15 37.54 15.1 37.54 12.67 44.3 12.67 44.3"/>
      <polygon class="orange" points="24.01 29.74 24.01 28.59 24.01 28.59 24.01 21.23 22.86 21.23 22.86 29.74 24.01 29.74 24.01 29.74"/>
      <polygon class="blue" points="8.67 26.73 7.52 26.73 7.52 29.74 11.29 29.75 11.29 28.6 8.67 28.6 8.67 26.73 8.67 26.73"/>
      <polygon class="orange" points="22.85 32.49 22.85 33.64 31.81 33.64 31.81 32.49 22.85 32.49 22.85 32.49"/>
      <polygon class="blue" points="5.82 32.49 5.82 33.64 20.11 33.64 20.11 25.11 16.39 21.57 15.6 22.4 18.96 25.6 18.96 32.49 5.82 32.49 5.82 32.49"/>
      <polygon class="orange" points="30.65 33.34 31.81 33.34 31.81 26.43 30.65 26.43 30.65 33.34 30.65 33.34"/>
      <polygon class="orange" points="29.54 36.39 29.54 37.53 35.7 37.53 35.7 30.69 34.55 30.69 34.55 36.39 29.54 36.39 29.54 36.39"/>
      <polygon class="blue" points="15.05 29.74 16.2 29.74 16.21 27 16.21 26.75 12.57 23.3 11.78 24.13 15.06 27.25 15.05 29.74 15.05 29.74"/>
      <polygon class="orange" points="27.91 23.03 26.75 23.03 26.75 29.17 27.91 29.17 27.91 23.03 27.91 23.03"/>
      <path class="blue" d="M5.15,35.66A1.3,1.3,0,1,1,3.85,37a1.3,1.3,0,0,1,1.3-1.3Z"/>
      <path class="blue" d="M5.82,31.76a1.3,1.3,0,1,1-1.3,1.3,1.3,1.3,0,0,1,1.3-1.3Z"/>
      <path class="blue" d="M8.1,25.43a1.3,1.3,0,1,1-1.3,1.3,1.3,1.3,0,0,1,1.3-1.3Z"/>
      <path class="blue" d="M11.3,27.87A1.31,1.31,0,1,1,10,29.17a1.31,1.31,0,0,1,1.31-1.3Z"/>
      <path class="blue" d="M15.63,27.87a1.31,1.31,0,1,1-1.3,1.3,1.3,1.3,0,0,1,1.3-1.3Z"/>
      <path class="blue" d="M12.18,22.42a1.3,1.3,0,1,1-1.3,1.3,1.3,1.3,0,0,1,1.3-1.3Z"/>
      <path class="blue" d="M16,20.68a1.3,1.3,0,1,1-1.3,1.3,1.3,1.3,0,0,1,1.3-1.3Z"/>
      <path class="orange" d="M23.43,19.93a1.3,1.3,0,1,1-1.3,1.3,1.3,1.3,0,0,1,1.3-1.3Z"/>
      <path class="orange" d="M27.33,27.87a1.3,1.3,0,1,1-1.3,1.3,1.3,1.3,0,0,1,1.3-1.3Z"/>
      <path class="orange" d="M27.33,21A1.31,1.31,0,1,1,26,22.26,1.31,1.31,0,0,1,27.33,21Z"/>
      <path class="orange" d="M22.85,31.76a1.3,1.3,0,1,1-1.3,1.3,1.3,1.3,0,0,1,1.3-1.3Z"/>
      <path class="orange" d="M31.23,24.55a1.3,1.3,0,1,1-1.3,1.3,1.3,1.3,0,0,1,1.3-1.3Z"/>
      <path class="orange" d="M35.13,29.39a1.3,1.3,0,1,1-1.31,1.3,1.3,1.3,0,0,1,1.31-1.3Z"/>
      <path class="orange" d="M29.54,35.66a1.3,1.3,0,1,1-1.3,1.3,1.3,1.3,0,0,1,1.3-1.3Z"/>
      <path class="orange" d="M25.19,35.66a1.3,1.3,0,1,1-1.3,1.3,1.3,1.3,0,0,1,1.3-1.3Z"/>
      <path class="orange" d="M23.43,27.87a1.3,1.3,0,1,1-1.3,1.3,1.3,1.3,0,0,1,1.3-1.3Z"/>
    </g>
  </g>
</svg>