<svg xmlns="http://www.w3.org/2000/svg" viewBox="0 0 163.51 70.74"><defs><style>.cls-1{fill:#fff;}</style></defs><title>pnp-office365-cli</title><g id="Layer_2" data-name="Layer 2"><g id="Layer_1-2" data-name="Layer 1"><path class="cls-1" d="M21.9,62.56a6.22,6.22,0,0,1-4.78-1.94,7.1,7.1,0,0,1-1.8-5,7.57,7.57,0,0,1,1.83-5.33,6.45,6.45,0,0,1,5-2,6.07,6.07,0,0,1,4.69,1.93,7.15,7.15,0,0,1,1.78,5,7.53,7.53,0,0,1-1.83,5.35A6.31,6.31,0,0,1,21.9,62.56ZM22,50.28a3.85,3.85,0,0,0-3.09,1.42,6.49,6.49,0,0,0,0,7.45,3.71,3.71,0,0,0,3,1.4,3.9,3.9,0,0,0,3.14-1.34,5.6,5.6,0,0,0,1.15-3.75,5.89,5.89,0,0,0-1.12-3.83A3.75,3.75,0,0,0,22,50.28Z"/><path class="cls-1" d="M21.9,62.81a6.5,6.5,0,0,1-5-2,7.42,7.42,0,0,1-1.86-5.21A7.8,7.8,0,0,1,17,50.09,6.67,6.67,0,0,1,22.13,48,6.32,6.32,0,0,1,27,50a7.38,7.38,0,0,1,1.85,5.21A7.85,7.85,0,0,1,27,60.76,6.59,6.59,0,0,1,21.9,62.81Zm.23-14.29a6.25,6.25,0,0,0-4.8,1.9,7.37,7.37,0,0,0-1.76,5.16,6.91,6.91,0,0,0,1.73,4.87,6,6,0,0,0,4.6,1.86,6.09,6.09,0,0,0,4.69-1.89,7.34,7.34,0,0,0,1.76-5.18,6.91,6.91,0,0,0-1.72-4.87A5.84,5.84,0,0,0,22.13,48.52ZM21.91,60.8a4,4,0,0,1-3.22-1.5,6,6,0,0,1-1.21-3.87,5.88,5.88,0,0,1,1.25-3.89A4.1,4.1,0,0,1,22,50a4,4,0,0,1,3.26,1.44,6.14,6.14,0,0,1,1.18,4,5.89,5.89,0,0,1-1.21,3.92A4.19,4.19,0,0,1,21.91,60.8ZM22,50.53a3.59,3.59,0,0,0-2.9,1.33,6.26,6.26,0,0,0,0,7.13,3.47,3.47,0,0,0,2.83,1.31,3.66,3.66,0,0,0,2.95-1.25A5.38,5.38,0,0,0,26,55.46a5.67,5.67,0,0,0-1.06-3.67A3.52,3.52,0,0,0,22,50.53Z"/><path class="cls-1" d="M38.6,50.45H33.43V54.6h4.76v1.94H33.43v5.79h-2.3V48.5H38.6Z"/><path class="cls-1" d="M33.68,62.58h-2.8V48.25h8V50.7H33.68v3.65h4.76v2.44H33.68Zm-2.3-.5h1.8V56.29h4.76V54.85H33.18V50.2h5.17V48.75h-7Z"/><path class="cls-1" d="M48.52,50.45H43.35V54.6h4.77v1.94H43.35v5.79H41.06V48.5h7.46Z"/><path class="cls-1" d="M43.6,62.58H40.81V48.25h8V50.7H43.6v3.65h4.77v2.44H43.6Zm-2.29-.5H43.1V56.29h4.77V54.85H43.1V50.2h5.17V48.75h-7Z"/><path class="cls-1" d="M53.33,62.33H51V48.5h2.36Z"/><path class="cls-1" d="M53.58,62.58H50.72V48.25h2.86Zm-2.36-.5h1.86V48.75H51.22Z"/><path class="cls-1" d="M66.38,61.75a8.39,8.39,0,0,1-3.89.81,6.35,6.35,0,0,1-4.82-1.9,6.93,6.93,0,0,1-1.81-5,7.27,7.27,0,0,1,2-5.36,7,7,0,0,1,5.15-2,8.44,8.44,0,0,1,3.33.57v2.27a6,6,0,0,0-3.09-.83,4.85,4.85,0,0,0-3.64,1.44,5.32,5.32,0,0,0-1.39,3.84,5,5,0,0,0,1.3,3.64A4.55,4.55,0,0,0,63,60.55a6.1,6.1,0,0,0,3.39-.92Z"/><path class="cls-1" d="M62.49,62.81a6.63,6.63,0,0,1-5-2,7.18,7.18,0,0,1-1.88-5.16,7.51,7.51,0,0,1,2.11-5.53A7.24,7.24,0,0,1,63.05,48a8.76,8.76,0,0,1,3.43.59l.15.06v2.88l-.38-.22a5.69,5.69,0,0,0-3-.8,4.66,4.66,0,0,0-3.46,1.36,5.11,5.11,0,0,0-1.32,3.67A4.85,4.85,0,0,0,59.74,59,4.35,4.35,0,0,0,63,60.3a5.91,5.91,0,0,0,3.26-.88l.38-.25V61.9L66.5,62A8.65,8.65,0,0,1,62.49,62.81Zm.56-14.29a6.75,6.75,0,0,0-5,2,7,7,0,0,0-2,5.18,6.74,6.74,0,0,0,1.74,4.82,6.15,6.15,0,0,0,4.64,1.82,8.4,8.4,0,0,0,3.64-.71V60.07A6.55,6.55,0,0,1,63,60.8a4.8,4.8,0,0,1-3.61-1.43A5.28,5.28,0,0,1,58,55.56a5.54,5.54,0,0,1,1.46-4A5.1,5.1,0,0,1,63.29,50a6.21,6.21,0,0,1,2.84.66V49A8.55,8.55,0,0,0,63.05,48.52Z"/><path class="cls-1" d="M76.77,62.33H69V48.5h7.46v2H71.3v3.91h4.75V56.3H71.3v4.09h5.47Z"/><path class="cls-1" d="M77,62.58H68.75V48.25h8V50.7H71.55v3.41H76.3v2.44H71.55v3.59H77Zm-7.77-.5h7.27V60.64H71.05V56.05H75.8V54.61H71.05V50.2h5.16V48.75h-7Z"/><path class="cls-1" d="M84.13,61.82v-2.1a4.81,4.81,0,0,0,3.05,1.07,3.56,3.56,0,0,0,2.21-.63,2,2,0,0,0,.82-1.7c0-1.57-1.2-2.35-3.6-2.35H85.54v-1.8h1c2.13,0,3.2-.73,3.2-2.21s-.83-2.05-2.49-2.05a4,4,0,0,0-2.61,1v-2A6.6,6.6,0,0,1,88,48.27a4.49,4.49,0,0,1,3,.92A3,3,0,0,1,92,51.57a3.37,3.37,0,0,1-2.78,3.51v0a3.68,3.68,0,0,1,2.37,1,3.11,3.11,0,0,1,.87,2.25,3.71,3.71,0,0,1-1.4,3,5.65,5.65,0,0,1-3.69,1.14A6.35,6.35,0,0,1,84.13,61.82Z"/><path class="cls-1" d="M87.41,62.81A6.55,6.55,0,0,1,84,62L83.88,62V59.2l.41.32a4.57,4.57,0,0,0,2.89,1,3.33,3.33,0,0,0,2-.58,1.76,1.76,0,0,0,.73-1.5c0-1.41-1.09-2.1-3.35-2.1H85.29v-2.3h1.27c2,0,3-.64,3-2s-.71-1.8-2.24-1.8a3.89,3.89,0,0,0-2.46.94l-.4.33V48.91l.12-.07A7,7,0,0,1,88,48a4.73,4.73,0,0,1,3.11,1,3.21,3.21,0,0,1,1.2,2.57A3.5,3.5,0,0,1,90.15,55a3.64,3.64,0,0,1,1.66,1,3.38,3.38,0,0,1,.94,2.42,4,4,0,0,1-1.49,3.2A5.91,5.91,0,0,1,87.41,62.81Zm-3-1.14a6.2,6.2,0,0,0,3,.64,5.43,5.43,0,0,0,3.53-1.09,3.4,3.4,0,0,0,1.31-2.81,2.89,2.89,0,0,0-.8-2.08,3.46,3.46,0,0,0-2.21-1l-.23,0v-.41l.19-.09a3.13,3.13,0,0,0,2.59-3.27,2.67,2.67,0,0,0-1-2.18A4.22,4.22,0,0,0,88,48.52a6.5,6.5,0,0,0-3.07.69v1.34a4.15,4.15,0,0,1,2.36-.75c2.26,0,2.74,1.25,2.74,2.3,0,1.63-1.16,2.46-3.45,2.46h-.77v1.3h.82c2.56,0,3.85.87,3.85,2.6a2.29,2.29,0,0,1-.92,1.9,3.84,3.84,0,0,1-2.36.68,5,5,0,0,1-2.8-.84Z"/><path class="cls-1" d="M104.18,57.88a5,5,0,0,1-.34,1.9,4.38,4.38,0,0,1-1,1.48,4.11,4.11,0,0,1-1.44,1,4.7,4.7,0,0,1-1.81.34,4.48,4.48,0,0,1-1.91-.41A4.15,4.15,0,0,1,96.22,61a6,6,0,0,1-1-2,10,10,0,0,1-.34-2.77,11.42,11.42,0,0,1,.46-3.4,7.46,7.46,0,0,1,1.25-2.49,5.45,5.45,0,0,1,1.88-1.52,5.28,5.28,0,0,1,2.34-.52,8.87,8.87,0,0,1,1.42.1,4,4,0,0,1,1,.29v2a7,7,0,0,0-1-.43,4.58,4.58,0,0,0-1.29-.17,3.36,3.36,0,0,0-1.49.33,3.3,3.3,0,0,0-1.18,1,4.75,4.75,0,0,0-.78,1.56,7.69,7.69,0,0,0-.3,2.15h.06A3.13,3.13,0,0,1,98.45,54a3.74,3.74,0,0,1,1.78-.4,4.42,4.42,0,0,1,1.63.29,3.51,3.51,0,0,1,1.25.85,3.76,3.76,0,0,1,.79,1.35A5.3,5.3,0,0,1,104.18,57.88Zm-2.25.19a4.06,4.06,0,0,0-.14-1.09,2.52,2.52,0,0,0-.43-.85,1.92,1.92,0,0,0-.71-.54,2.43,2.43,0,0,0-1-.2,2.38,2.38,0,0,0-1,.21,2.23,2.23,0,0,0-.73.55,2.2,2.2,0,0,0-.45.77,2.68,2.68,0,0,0-.15.89,4,4,0,0,0,.14,1,2.78,2.78,0,0,0,.43.94,2.25,2.25,0,0,0,.74.7,1.91,1.91,0,0,0,1.06.28,2.13,2.13,0,0,0,1-.21,1.94,1.94,0,0,0,.71-.55,2.54,2.54,0,0,0,.44-.85A3.51,3.51,0,0,0,101.93,58.07Z"/><path class="cls-1" d="M99.64,62.82a4.66,4.66,0,0,1-2-.43A4.24,4.24,0,0,1,96,61.11,6,6,0,0,1,95,59a10.56,10.56,0,0,1-.35-2.84,11.47,11.47,0,0,1,.47-3.47,7.67,7.67,0,0,1,1.3-2.57A5.44,5.44,0,0,1,100.83,48a9.33,9.33,0,0,1,1.46.11,4,4,0,0,1,1.09.31l.15.07v2.58l-.37-.19a6.09,6.09,0,0,0-1-.41,3.88,3.88,0,0,0-2.59.14,3.23,3.23,0,0,0-1.1.89A4.45,4.45,0,0,0,97.73,53a6.43,6.43,0,0,0-.26,1.41,3.93,3.93,0,0,1,.86-.64,4.09,4.09,0,0,1,1.9-.42,4.8,4.8,0,0,1,1.73.31,3.85,3.85,0,0,1,1.33.91,4.13,4.13,0,0,1,.85,1.44,5.82,5.82,0,0,1,.29,1.87,5.35,5.35,0,0,1-.36,2,4.69,4.69,0,0,1-1,1.56,4.46,4.46,0,0,1-1.53,1A5,5,0,0,1,99.64,62.82Zm1.19-14.3A5.09,5.09,0,0,0,98.6,49a5.18,5.18,0,0,0-1.79,1.46,7.42,7.42,0,0,0-1.22,2.4,11.63,11.63,0,0,0-.44,3.33,9.93,9.93,0,0,0,.33,2.7,5.78,5.78,0,0,0,.94,1.91,3.82,3.82,0,0,0,1.41,1.13,4.62,4.62,0,0,0,3.52.06,4,4,0,0,0,1.36-.91,4.32,4.32,0,0,0,.9-1.4,5,5,0,0,0,.32-1.81,5.28,5.28,0,0,0-.26-1.7,3.87,3.87,0,0,0-.74-1.27,3.21,3.21,0,0,0-1.16-.78,4,4,0,0,0-1.54-.28,3.45,3.45,0,0,0-1.66.37,2.88,2.88,0,0,0-1.11,1l-.07.12H97l-.06-.26a7.75,7.75,0,0,1,.31-2.21,4.91,4.91,0,0,1,.82-1.65,3.59,3.59,0,0,1,1.27-1,4.41,4.41,0,0,1,3-.17,6.46,6.46,0,0,1,.73.28V48.83a4.22,4.22,0,0,0-.82-.21A8.36,8.36,0,0,0,100.83,48.52ZM99.66,61a2.33,2.33,0,0,1-1.2-.31,2.62,2.62,0,0,1-.81-.78,3.2,3.2,0,0,1-.46-1A4.12,4.12,0,0,1,97,57.81a2.86,2.86,0,0,1,.16-1,2.56,2.56,0,0,1,.5-.86,2.39,2.39,0,0,1,.82-.6,2.92,2.92,0,0,1,2.23,0,2.23,2.23,0,0,1,.81.61,2.68,2.68,0,0,1,.47.94,4.23,4.23,0,0,1,.15,1.16A4.11,4.11,0,0,1,102,59.2a2.78,2.78,0,0,1-.48.92,2.16,2.16,0,0,1-.8.63A2.48,2.48,0,0,1,99.66,61Zm0-5.34a2.17,2.17,0,0,0-.91.19,2,2,0,0,0-.66.48,2.15,2.15,0,0,0-.4.69,2.45,2.45,0,0,0-.13.81,3.49,3.49,0,0,0,.13.94,3.2,3.2,0,0,0,.39.86,2.12,2.12,0,0,0,.67.63,2.07,2.07,0,0,0,1.8.06,1.85,1.85,0,0,0,.62-.49,2.28,2.28,0,0,0,.39-.76,3.41,3.41,0,0,0,.14-1,4.09,4.09,0,0,0-.13-1,2.21,2.21,0,0,0-.38-.75,2,2,0,0,0-.62-.48A2.31,2.31,0,0,0,99.64,55.64Z"/><path class="cls-1" d="M106.43,62V59.86a4.92,4.92,0,0,0,2.76.92,3.39,3.39,0,0,0,2.26-.72,2.36,2.36,0,0,0,.86-1.92,2.17,2.17,0,0,0-.87-1.83,4.09,4.09,0,0,0-2.5-.66c-.38,0-1.13,0-2.27.12l.49-7.27H114v1.91h-5l-.23,3.46c.45,0,.85,0,1.21,0A4.8,4.8,0,0,1,113.4,55a4,4,0,0,1,1.2,3.09,4.21,4.21,0,0,1-1.38,3.29,5.39,5.39,0,0,1-3.77,1.24A6.24,6.24,0,0,1,106.43,62Z"/><path class="cls-1" d="M109.45,62.83a6.47,6.47,0,0,1-3.14-.6l-.13-.08V59.39l.39.26a4.67,4.67,0,0,0,2.62.88,3.22,3.22,0,0,0,2.1-.66,2.13,2.13,0,0,0,.77-1.73,1.91,1.91,0,0,0-.77-1.63,3.92,3.92,0,0,0-2.35-.61c-.36,0-1.12,0-2.25.12l-.29,0,.53-7.79h7.29v2.41h-5l-.2,3,.94,0a5,5,0,0,1,3.57,1.2,4.29,4.29,0,0,1,1.28,3.27,4.49,4.49,0,0,1-1.46,3.48A5.71,5.71,0,0,1,109.45,62.83Zm-2.77-1a6.43,6.43,0,0,0,2.77.47,5.23,5.23,0,0,0,3.61-1.18,3.93,3.93,0,0,0,1.29-3.1,3.78,3.78,0,0,0-1.12-2.91A4.59,4.59,0,0,0,110,54.08c-.36,0-.75,0-1.19,0l-.29,0,.27-4h4.93V48.75H107.4l-.46,6.75c1-.06,1.65-.1,2-.1a4.35,4.35,0,0,1,2.65.71,2.4,2.4,0,0,1,1,2,2.63,2.63,0,0,1-1,2.11,3.68,3.68,0,0,1-2.42.78,4.92,4.92,0,0,1-2.51-.72Z"/><path class="cls-1" d="M132.68,61.75a8.39,8.39,0,0,1-3.89.81,6.35,6.35,0,0,1-4.82-1.9,6.93,6.93,0,0,1-1.81-5,7.27,7.27,0,0,1,2-5.36,7,7,0,0,1,5.15-2,8.44,8.44,0,0,1,3.33.57v2.27a6,6,0,0,0-3.09-.83A4.85,4.85,0,0,0,126,51.72a5.32,5.32,0,0,0-1.39,3.84,5.07,5.07,0,0,0,1.3,3.64,4.55,4.55,0,0,0,3.43,1.35,6.1,6.1,0,0,0,3.39-.92Z"/><path class="cls-1" d="M128.79,62.81a6.63,6.63,0,0,1-5-2,7.18,7.18,0,0,1-1.88-5.16A7.51,7.51,0,0,1,124,50.14,7.24,7.24,0,0,1,129.35,48a8.76,8.76,0,0,1,3.43.59l.15.06v2.88l-.38-.22a5.69,5.69,0,0,0-3-.8,4.64,4.64,0,0,0-3.46,1.36,5.11,5.11,0,0,0-1.32,3.67A4.85,4.85,0,0,0,126,59a4.35,4.35,0,0,0,3.25,1.27,5.91,5.91,0,0,0,3.26-.88l.38-.25V61.9l-.13.07A8.65,8.65,0,0,1,128.79,62.81Zm.56-14.29a6.75,6.75,0,0,0-5,2,7,7,0,0,0-2,5.18,6.74,6.74,0,0,0,1.74,4.82,6.15,6.15,0,0,0,4.64,1.82,8.4,8.4,0,0,0,3.64-.71V60.07a6.55,6.55,0,0,1-3.14.73,4.8,4.8,0,0,1-3.61-1.43,5.28,5.28,0,0,1-1.37-3.81,5.54,5.54,0,0,1,1.46-4A5.1,5.1,0,0,1,129.59,50a6.21,6.21,0,0,1,2.84.66V49A8.55,8.55,0,0,0,129.35,48.52Z"/><path class="cls-1" d="M143,62.33H135.3V48.5h2.3V60.39H143Z"/><path class="cls-1" d="M143.21,62.58h-8.16V48.25h2.8V60.14h5.36Zm-7.66-.5h7.16V60.64h-5.36V48.75h-1.8Z"/><path class="cls-1" d="M147.31,62.33H145V48.5h2.36Z"/><path class="cls-1" d="M147.56,62.58H144.7V48.25h2.86Zm-2.36-.5h1.86V48.75H145.2Z"/><path class="cls-1" d="M161.23,42.63V68.46H2.28V42.63h159m2.28-2.28H0V70.74H163.51V40.35Z"/><path class="cls-1" d="M53.86,14.07h-2V21h2c2.67,0,4-1.17,4-3.49S56.53,14.07,53.86,14.07Z"/><path class="cls-1" d="M15.12,14.07h-2V21h2c2.67,0,4-1.17,4-3.49S17.79,14.07,15.12,14.07Z"/><path class="cls-1" d="M0,0V42.64l70,.11V.12ZM22,22.7a9.54,9.54,0,0,1-6.44,2.06H13.15V32.4h-5V10.24H16q8.4,0,8.41,7.06A6.75,6.75,0,0,1,22,22.7Zm20.54,9.7H37.63V23.6q0-3.68-2.64-3.67a2.62,2.62,0,0,0-2.09,1,3.68,3.68,0,0,0-.82,2.47v9H27.17V16.57h4.91v2.51h.06a5.62,5.62,0,0,1,5.1-2.89q5.28,0,5.28,6.52Zm18.21-9.7a9.57,9.57,0,0,1-6.45,2.06H51.89V32.4h-5V10.24h7.85q8.42,0,8.41,7.06A6.77,6.77,0,0,1,60.73,22.7Z"/><path class="cls-1" d="M161.23,2.4V40.48H70V2.4h91.22M163.51.13H67.73V42.76h95.78V.13Z"/><path class="cls-1" d="M109.14,31.64a15.4,15.4,0,0,1-6.69,1.24c-3.58,0-6.41-1.05-8.46-3.16a11.58,11.58,0,0,1-3.08-8.43,12.34,12.34,0,0,1,3.46-9.1,12.12,12.12,0,0,1,9-3.49,17,17,0,0,1,5.77.86v5.07a10.29,10.29,0,0,0-5.35-1.4,7.1,7.1,0,0,0-5.32,2.07,7.72,7.72,0,0,0-2,5.61,7.56,7.56,0,0,0,1.91,5.41,6.74,6.74,0,0,0,5.14,2,11,11,0,0,0,5.64-1.5Z"/><path class="cls-1" d="M129.15,32.47H115.22V9.09h5.27V28.2h8.66Z"/><path class="cls-1" d="M138.9,32.47h-5.27V9.09h5.27Z"/></g></g></svg>