<svg xmlns="http://www.w3.org/2000/svg" width="162.45" height="70.28" viewBox="0 0 162.45 70.28"><g id="Layer_2" data-name="Layer 2"><g id="Blue-Logo"><g id="CLI_Microsoft_365_-_Blue" data-name="CLI for Microsoft 365 - Blue"><path d="M148.52,62.36a5.57,5.57,0,0,0,3.88-1.28,4.39,4.39,0,0,0,1.43-3.41,4.22,4.22,0,0,0-1.25-3.2,4.93,4.93,0,0,0-3.51-1.17l-1,0,.21-3.06h4.93V48h-7.13l-.52,7.61h.22c1.13-.08,1.88-.12,2.24-.12a3.9,3.9,0,0,1,2.37.62,1.94,1.94,0,0,1,.79,1.67,2.15,2.15,0,0,1-.78,1.75,3.16,3.16,0,0,1-2.13.67,4.67,4.67,0,0,1-2.64-.87l-.29-.2v2.6l.09.05A6.3,6.3,0,0,0,148.52,62.36Z" style="fill:#2e76bc"/><path d="M53.43,58.06l.16-.1c-.2-.3-.38-.57-.55-.8a6.76,6.76,0,0,0-.51-.62L52,56a2.92,2.92,0,0,0-.38-.29,5.25,5.25,0,0,0,1-.42,4,4,0,0,0,1-.86,3.54,3.54,0,0,0,.64-1.14,3.92,3.92,0,0,0,.23-1.4,3.83,3.83,0,0,0-.36-1.7,3.42,3.42,0,0,0-1-1.23,4.45,4.45,0,0,0-1.48-.73A7.05,7.05,0,0,0,49.78,48H45.07V62.11h2.65V56.54h.73a2.28,2.28,0,0,1,.72.1,1.56,1.56,0,0,1,.57.3,3.26,3.26,0,0,1,.55.56,7.18,7.18,0,0,1,.56.84l2.25,3.77h3.11L53.59,58Zm-4-7.84a2.43,2.43,0,0,1,1.67.51,1.77,1.77,0,0,1,.56,1.4,2.4,2.4,0,0,1-.17.92,1.82,1.82,0,0,1-.46.68,2,2,0,0,1-.71.43,2.59,2.59,0,0,1-.91.15h-1.7V50.22Z" style="fill:#2e76bc"/><path d="M39.34,47.77a7.11,7.11,0,0,0-5.25,2.08A7.42,7.42,0,0,0,32,55.32a7.08,7.08,0,0,0,1.85,5.08,6.48,6.48,0,0,0,4.93,1.94,8.58,8.58,0,0,0,4-.82l.1-.05V58.9l-.29.18a5.85,5.85,0,0,1-3.27.89A4.34,4.34,0,0,1,36,58.69a4.83,4.83,0,0,1-1.24-3.49,5,5,0,0,1,1.33-3.68,4.59,4.59,0,0,1,3.48-1.37,5.61,5.61,0,0,1,3,.8l.29.16V48.4l-.12,0A8.54,8.54,0,0,0,39.34,47.77Z" style="fill:#2e76bc"/><polygon points="27.15 48 27.15 62.12 29.88 62.12 29.88 48 29.69 48 27.15 48" style="fill:#2e76bc"/><path d="M20.74,48,17,57.23c-.12.27-.25.64-.42,1.12-.1-.3-.22-.65-.39-1.08L12.55,48H9V62.11h2.49V53.05c0-.44,0-.82,0-1.18l4.13,10.24h1.82l4.1-10.25q0,.64,0,1.17v9.08h2.63V48H20.74Z" style="fill:#2e76bc"/><path d="M88.46,62.34a6.47,6.47,0,0,0,5-2,7.73,7.73,0,0,0,1.86-5.45,7.34,7.34,0,0,0-1.82-5.14,6.26,6.26,0,0,0-4.8-2,6.58,6.58,0,0,0-5.08,2,7.62,7.62,0,0,0-1.87,5.42,7.26,7.26,0,0,0,1.83,5.14A6.37,6.37,0,0,0,88.46,62.34ZM85.64,51.49a3.61,3.61,0,0,1,2.92-1.34,3.53,3.53,0,0,1,2.91,1.27,5.64,5.64,0,0,1,1.06,3.68,5.41,5.41,0,0,1-1.09,3.61,3.7,3.7,0,0,1-3,1.26,3.47,3.47,0,0,1-2.86-1.33,5.38,5.38,0,0,1-1.11-3.56A5.35,5.35,0,0,1,85.64,51.49Z" style="fill:#2e76bc"/><polygon points="100.1 56.37 104.83 56.37 104.83 54.06 100.1 54.06 100.1 50.31 105.23 50.31 105.23 48 105.04 48 97.44 48 97.44 62.12 100.1 62.12 100.1 56.37" style="fill:#2e76bc"/><path d="M72.29,54.28a5.92,5.92,0,0,0,1.08.88c.41.26.85.51,1.32.76s.85.39,1.23.58a6.08,6.08,0,0,1,1,.55,2.21,2.21,0,0,1,.61.61,1.32,1.32,0,0,1,.2.74,1.37,1.37,0,0,1-.62,1.23,3.65,3.65,0,0,1-2,.45,5.52,5.52,0,0,1-.87-.08,8.42,8.42,0,0,1-1-.24,5.41,5.41,0,0,1-.89-.38,3,3,0,0,1-.71-.49l-.32-.28v2.87l.09.06a3.54,3.54,0,0,0,.8.35c.32.09.66.18,1,.25s.7.12,1,.15a7.35,7.35,0,0,0,.87.05,9.39,9.39,0,0,0,2-.2,5.23,5.23,0,0,0,1.7-.68,3.4,3.4,0,0,0,1.64-3.09,3.29,3.29,0,0,0-.3-1.46,4,4,0,0,0-.8-1.16,6.72,6.72,0,0,0-1.15-.94c-.43-.28-.89-.54-1.37-.79s-.89-.4-1.24-.57a6.63,6.63,0,0,1-.87-.53,1.86,1.86,0,0,1-.51-.55,1.41,1.41,0,0,1-.17-.71,1.28,1.28,0,0,1,.22-.72,1.8,1.8,0,0,1,.58-.51,3,3,0,0,1,.85-.3,5.31,5.31,0,0,1,1-.09,4.86,4.86,0,0,1,2.9.81l.3.22V48.33l-.1,0a7.63,7.63,0,0,0-3.23-.51,7.55,7.55,0,0,0-1.9.23,5.45,5.45,0,0,0-1.69.71A3.94,3.94,0,0,0,71.75,50a3.29,3.29,0,0,0-.47,1.78,3.64,3.64,0,0,0,.27,1.45A3.74,3.74,0,0,0,72.29,54.28Z" style="fill:#2e76bc"/><path d="M58.08,49.8a7.72,7.72,0,0,0-1.87,5.42,7.26,7.26,0,0,0,1.84,5.14,6.33,6.33,0,0,0,4.89,2,6.45,6.45,0,0,0,5-2,7.69,7.69,0,0,0,1.86-5.45A7.29,7.29,0,0,0,68,49.74a6.26,6.26,0,0,0-4.8-2A6.58,6.58,0,0,0,58.08,49.8Zm7.84,8.91A3.68,3.68,0,0,1,63,60a3.49,3.49,0,0,1-2.86-1.33,6.24,6.24,0,0,1,0-7.15,3.63,3.63,0,0,1,2.93-1.34A3.53,3.53,0,0,1,66,51.42,5.59,5.59,0,0,1,67,55.1,5.35,5.35,0,0,1,65.92,58.71Z" style="fill:#2e76bc"/><path d="M135.23,60.68a4.29,4.29,0,0,0,1.57,1.25,4.66,4.66,0,0,0,2,.42,4.82,4.82,0,0,0,1.87-.35,4.49,4.49,0,0,0,1.49-1,4.69,4.69,0,0,0,1-1.53,5.42,5.42,0,0,0,.35-2,5.34,5.34,0,0,0-.29-1.84,4,4,0,0,0-.83-1.41,3.59,3.59,0,0,0-1.3-.89,4.63,4.63,0,0,0-1.7-.3,3.91,3.91,0,0,0-1.85.41,3.34,3.34,0,0,0-.94.76,6.88,6.88,0,0,1,.25-1.6,4.62,4.62,0,0,1,.74-1.49,3.29,3.29,0,0,1,1.11-.9,3.26,3.26,0,0,1,1.4-.3,4.06,4.06,0,0,1,1.22.16,6.58,6.58,0,0,1,1,.41l.27.14V48.23l-.11,0a4.06,4.06,0,0,0-1.07-.3,8,8,0,0,0-1.44-.11,5.55,5.55,0,0,0-2.4.53,5.71,5.71,0,0,0-1.94,1.57,7.81,7.81,0,0,0-1.28,2.53,11.74,11.74,0,0,0-.46,3.44,9.88,9.88,0,0,0,.35,2.8A5.89,5.89,0,0,0,135.23,60.68Zm3.55-5.45a2.29,2.29,0,0,1,.92.17,1.74,1.74,0,0,1,.64.49,2.23,2.23,0,0,1,.39.77,3.68,3.68,0,0,1,.13,1,3.43,3.43,0,0,1-.14,1,2.13,2.13,0,0,1-.4.78,1.82,1.82,0,0,1-.63.5,2.08,2.08,0,0,1-.89.19,1.8,1.8,0,0,1-1-.25,2.19,2.19,0,0,1-.68-.64,2.83,2.83,0,0,1-.4-.88,3.51,3.51,0,0,1-.13-1,2.57,2.57,0,0,1,.14-.82,2.05,2.05,0,0,1,.41-.7,2.14,2.14,0,0,1,.67-.5A2.2,2.2,0,0,1,138.78,55.23Z" style="fill:#2e76bc"/><polygon points="110.07 62.12 112.72 62.12 112.72 50.31 116.67 50.31 116.67 48 116.48 48 106.13 48 106.13 50.31 110.07 50.31 110.07 62.12" style="fill:#2e76bc"/><path d="M126.63,62.34a5.75,5.75,0,0,0,3.78-1.17A3.86,3.86,0,0,0,131.87,58a3.29,3.29,0,0,0-.92-2.37,3.55,3.55,0,0,0-1.79-1,3.45,3.45,0,0,0,2.26-3.45,3.15,3.15,0,0,0-1.17-2.5,4.61,4.61,0,0,0-3-1,6.84,6.84,0,0,0-3.4.81l-.1.05v2.48l.31-.25a3.87,3.87,0,0,1,2.48-.94c1.6,0,2.26.58,2.28,1.84s-.89,2-3,2h-1.21v2.15h1.26c2.36,0,3.37.73,3.38,2.15a1.82,1.82,0,0,1-.74,1.54,3.38,3.38,0,0,1-2.08.58,4.53,4.53,0,0,1-2.91-1l-.31-.24v2.58l.09.06A6.43,6.43,0,0,0,126.63,62.34Z" style="fill:#2e76bc"/><path d="M57.49,17.37q0-3.39-4-3.39h-2v6.86h2C56.16,20.84,57.49,19.69,57.49,17.37Z" style="fill:#2e76bc"/><path d="M19,17.37Q19,14,15,14h-2v6.86h2C17.67,20.84,19,19.69,19,17.37Z" style="fill:#2e76bc"/><path d="M69.59.12h0L0,0V70.28H162.45V.12Zm-23,10.05h7.8q8.35,0,8.35,7a6.7,6.7,0,0,1-2.4,5.36,9.48,9.48,0,0,1-6.4,2.05H51.55v7.59h-5ZM27,16.47h4.87V19h.06A5.59,5.59,0,0,1,37,16.08c3.5,0,5.24,2.16,5.24,6.48v9.63H37.39V23.45c0-2.43-.88-3.65-2.62-3.65a2.57,2.57,0,0,0-2.08,1,3.63,3.63,0,0,0-.82,2.45v9H27ZM8.08,10.17h7.8q8.35,0,8.36,7a6.7,6.7,0,0,1-2.4,5.36,9.5,9.5,0,0,1-6.4,2.05H13.06v7.59h-5ZM160.19,68H2.26V42.36l65,.11h92.89ZM69.59,40.09V2.39h90.6v37.7Z" style="fill:#2e76bc"/><path d="M93.76,12.11a12.28,12.28,0,0,0-3.44,9,11.51,11.51,0,0,0,3.06,8.38,11.22,11.22,0,0,0,8.41,3.14,15.31,15.31,0,0,0,6.64-1.23V26.66a10.89,10.89,0,0,1-5.6,1.49,6.69,6.69,0,0,1-5.1-2,7.48,7.48,0,0,1-1.9-5.37,7.65,7.65,0,0,1,2-5.58,7.05,7.05,0,0,1,5.28-2,10.12,10.12,0,0,1,5.31,1.39v-5a16.71,16.71,0,0,0-5.73-.86A12.07,12.07,0,0,0,93.76,12.11Z" style="fill:#2e76bc"/><polygon points="119.71 9.03 114.48 9.03 114.48 32.26 128.31 32.26 128.31 28.02 119.71 28.02 119.71 9.03" style="fill:#2e76bc"/><rect x="132.77" y="9.03" width="5.23" height="23.23" style="fill:#2e76bc"/></g></g></g></svg>